<svg width="38" height="47" viewBox="0 0 38 47" fill="none" xmlns="http://www.w3.org/2000/svg">
<path d="M37.1676 32.08L28.3535 32.5122C28.3777 28.9716 27.9715 25.5114 27.1717 22.161L37.1676 32.08ZM12.3365 39.7951L6.21699 46.1533L5.31278 32.1002C7.31191 34.9053 9.65251 37.4859 12.3365 39.7951ZM4.30768 0.883527C4.30768 0.883527 15.7182 0.308944 22.6721 15.6022C25.3667 21.5283 26.2193 27.2539 26.2477 32.0394C26.2431 32.8502 26.0025 33.6446 25.555 34.3269C25.1074 35.0093 24.4718 35.5505 23.7247 35.8857L17.9215 38.5244C17.1778 38.8671 16.3521 38.9903 15.5437 38.8791C14.7353 38.7678 13.9785 38.4269 13.3645 37.8974C9.79616 34.7216 6.02254 30.3241 3.32792 24.398C-3.62594 9.10474 4.30768 0.883527 4.30768 0.883527ZM13 20.0001C15.1279 19.0326 16.0865 16.5205 15.1304 14.4176C14.1742 12.3148 11.6509 11.3859 9.52307 12.3535C7.39521 13.321 6.43655 15.8331 7.3927 17.9359C8.34886 20.0388 10.8721 20.9676 13 20.0001Z" fill="#406E61"/>
</svg>
