<svg width="45" height="56" viewBox="0 0 45 56" fill="none" xmlns="http://www.w3.org/2000/svg">
<g clip-path="url(#clip0_5_63)">
<path d="M44.9962 32.4672L32.6687 10.4795L29.0294 16.9718L37.7159 32.4672H37.7177L24.5255 56H31.8058L45 32.4672H44.9962Z" fill="#EBEDEC"/>
<path d="M26.4334 18.2717L22.7923 24.7641L27.1102 32.4672H27.1064L13.9122 56H21.1926L34.3868 32.4672H34.3924L26.4334 18.2717Z" fill="#9B9B9B"/>
<path d="M44.9699 32.4189H37.6895L37.7159 32.4672H37.7196L24.5255 56H31.8058L45 32.4672H44.9962L44.9699 32.4189Z" fill="#EBEDEC"/>
<path d="M27.0838 32.4189L27.1102 32.4672H27.1064L13.9122 56H21.1926L34.3868 32.4672H34.3924L34.3661 32.4189H27.0838Z" fill="#EBEDEC"/>
<path d="M0.00572031 23.5328L12.3333 45.5205L15.9726 39.0264L7.2861 23.5328H7.28234L20.4765 0H13.1961L0.00196075 23.5328H0.00572031Z" fill="#EBEDEC"/>
<path d="M18.5703 37.7283L22.2096 31.2359L17.8917 23.5328H17.8955L31.0896 0H23.8093L10.6151 23.5328H10.6095L18.5703 37.7283Z" fill="#9B9B9B"/>
<path d="M10.617 23.5328H17.8917L31.0896 0H23.8093L10.6151 23.5328H10.6095L10.617 23.5421V23.5328Z" fill="#EBEDEC"/>
<path d="M0.00563933 23.5328H7.28038L20.4802 0H13.1998L0.00563933 23.5328H0L0.00563933 23.5421V23.5328Z" fill="#EBEDEC"/>
</g>
<defs>
<clipPath id="clip0_5_63">
<rect width="45" height="56" fill="white"/>
</clipPath>
</defs>
</svg>
