<svg width="114" height="39" viewBox="0 0 114 39" fill="none" xmlns="http://www.w3.org/2000/svg">
<g clip-path="url(#clip0_30_487)">
<path d="M30.9974 22.6112L22.5051 7.29834L19.998 11.8198L25.982 22.6112H25.9833L16.8953 39.0001H21.9107L31 22.6112H30.9974Z" fill="#EBEDEC"/>
<path d="M18.2097 12.7251L15.7014 17.2465L18.6759 22.6112H18.6733L9.58398 39.0001H14.5994L23.6887 22.6112H23.6926L18.2097 12.7251Z" fill="#9B9B9B"/>
<path d="M30.9793 22.5776H25.9639L25.982 22.6113H25.9846L16.8953 39.0002H21.9107L31 22.6113H30.9974L30.9793 22.5776Z" fill="#EBEDEC"/>
<path d="M18.6578 22.5776L18.6759 22.6113H18.6733L9.58398 39.0002H14.5994L23.6887 22.6113H23.6926L23.6744 22.5776H18.6578Z" fill="#EBEDEC"/>
<path d="M0.0039861 16.3889L8.49632 31.7018L11.0034 27.1791L5.01936 16.3889H5.01677L14.1061 0H9.09071L0.00139618 16.3889H0.0039861Z" fill="#EBEDEC"/>
<path d="M12.7929 26.275L15.2999 21.7536L12.3254 16.3889H12.328L21.4173 0H16.4019L7.31263 16.3889H7.30875L12.7929 26.275Z" fill="#9B9B9B"/>
<path d="M7.31393 16.3889H12.3254L21.4173 0H16.4019L7.31263 16.3889H7.30875L7.31393 16.3954V16.3889Z" fill="#EBEDEC"/>
<path d="M0.00388487 16.3889H5.01537L14.1086 0H9.09319L0.00388487 16.3889H0L0.00388487 16.3954V16.3889Z" fill="#EBEDEC"/>
</g>
<path d="M43.9108 25.72L45.1748 24.632C45.7188 25.464 46.6628 25.848 47.5748 25.848C48.5828 25.848 49.8308 25.208 49.8308 23.96C49.8308 21.352 44.2468 22.968 44.2468 18.552C44.2468 17.224 45.3668 15.384 48.0868 15.384C49.3188 15.384 50.5028 15.64 51.3508 16.68L50.1028 17.816C49.7188 17.224 48.9668 16.824 48.0868 16.824C46.3908 16.824 45.8788 17.848 45.8788 18.552C45.8788 21.416 51.4628 19.704 51.4628 23.784C51.4628 25.976 49.7028 27.288 47.5268 27.288C46.0708 27.288 44.6788 26.792 43.9108 25.72ZM55.6014 27.048L52.4494 19.416H54.1134L56.3694 25.336H56.4014L58.5454 19.416H60.0974L56.4974 28.632C55.9854 29.944 55.4894 30.84 53.9054 30.84C53.4734 30.84 53.0254 30.792 52.6254 30.632L52.8014 29.32C53.0734 29.432 53.3774 29.496 53.6654 29.496C54.5774 29.496 54.8494 29 55.1374 28.248L55.6014 27.048ZM61.3614 27V19.416H62.8014V20.584H62.8334C63.2014 19.784 64.1614 19.224 65.3294 19.224C66.8014 19.224 68.0814 20.104 68.0814 22.12V27H66.6414V22.52C66.6414 21.096 65.8254 20.568 64.9134 20.568C63.7134 20.568 62.8014 21.336 62.8014 23.096V27H61.3614ZM77.8521 14.904V27H76.4121V25.912H76.3801C75.8201 26.728 74.7641 27.192 73.7401 27.192C71.3881 27.192 69.8841 25.448 69.8841 23.208C69.8841 20.936 71.4041 19.224 73.7401 19.224C74.8281 19.224 75.8681 19.72 76.3801 20.504H76.4121V14.904H77.8521ZM73.9161 25.848C75.4521 25.848 76.4121 24.744 76.4121 23.208C76.4121 21.672 75.4521 20.568 73.9161 20.568C72.3801 20.568 71.4201 21.672 71.4201 23.208C71.4201 24.744 72.3801 25.848 73.9161 25.848ZM80.1453 27V19.416H81.5853V27H80.1453ZM79.8093 16.696C79.8093 16.12 80.2893 15.64 80.8653 15.64C81.4413 15.64 81.9213 16.12 81.9213 16.696C81.9213 17.272 81.4413 17.752 80.8653 17.752C80.2893 17.752 79.8093 17.272 79.8093 16.696ZM90.3891 20.44L89.3011 21.432C88.7731 20.872 88.2131 20.584 87.4131 20.584C85.8451 20.584 85.0451 21.848 85.0451 23.272C85.0451 24.696 86.0051 25.848 87.4931 25.848C88.2931 25.848 88.8531 25.56 89.3331 25L90.3571 26.024C89.6051 26.856 88.5811 27.192 87.4771 27.192C85.1411 27.192 83.5091 25.576 83.5091 23.24C83.5091 20.904 85.1091 19.24 87.4771 19.24C88.5811 19.24 89.6371 19.624 90.3891 20.44ZM92.4918 21.24L91.6278 20.344C92.4278 19.592 93.5798 19.224 94.6358 19.224C96.8758 19.224 97.8038 20.44 97.8038 21.752V25.624C97.8038 26.152 97.8198 26.6 97.8678 27H96.5878C96.5558 26.616 96.5398 26.232 96.5398 25.848H96.5078C95.8678 26.824 95.0038 27.192 93.8518 27.192C92.4438 27.192 91.2278 26.392 91.2278 24.92C91.2278 22.968 93.0998 22.296 95.4038 22.296H96.4598V21.976C96.4598 21.192 95.8838 20.376 94.6518 20.376C93.5478 20.376 93.0198 20.84 92.4918 21.24ZM96.4598 23.352H95.6918C94.3318 23.352 92.6678 23.592 92.6678 24.808C92.6678 25.672 93.3078 26.04 94.2998 26.04C95.8998 26.04 96.4598 24.856 96.4598 23.832V23.352ZM103.957 19.416V20.664H101.893V24.104C101.893 24.952 101.893 25.848 102.981 25.848C103.317 25.848 103.717 25.8 104.005 25.624V26.936C103.669 27.128 102.997 27.192 102.709 27.192C100.485 27.192 100.453 25.832 100.453 24.616V20.664H98.7887V19.416H100.453V17.288H101.893V19.416H103.957ZM112.983 23.736H106.903C106.903 25.064 108.135 25.944 109.463 25.944C110.343 25.944 110.983 25.496 111.543 24.808L112.631 25.64C111.831 26.68 110.727 27.192 109.271 27.192C106.871 27.192 105.367 25.464 105.367 23.208C105.367 20.936 107.015 19.224 109.287 19.224C111.959 19.224 112.983 21.272 112.983 23.224V23.736ZM106.903 22.584H111.447C111.415 21.32 110.711 20.376 109.255 20.376C107.831 20.376 106.903 21.576 106.903 22.584Z" fill="white"/>
<defs>
<clipPath id="clip0_30_487">
<rect width="31" height="39" fill="white"/>
</clipPath>
</defs>
</svg>
