<svg width="40" height="42" viewBox="0 0 40 42" fill="none" xmlns="http://www.w3.org/2000/svg">
<path fill-rule="evenodd" clip-rule="evenodd" d="M20.0455 0C14.7757 0 9.97485 1.74067 7.13402 3.16283C6.87735 3.29117 6.6378 3.41639 6.41535 3.5385C5.97435 3.77883 5.59869 4.00283 5.30002 4.2L8.53169 8.95767L10.053 9.56317C15.9984 12.5627 23.9714 12.5627 29.9179 9.56317L31.6445 8.66717L34.7 4.2C34.0664 3.78829 33.4083 3.41544 32.7295 3.0835C29.9027 1.6765 25.2162 0 20.0467 0M12.531 5.38533C11.3869 5.17002 10.2567 4.8864 9.14652 4.536C11.8077 3.35417 15.7732 2.1 20.0467 2.1C23.0065 2.1 25.8054 2.702 28.12 3.465C25.4075 3.8465 22.513 4.494 19.755 5.29083C17.585 5.9185 15.0487 5.85083 12.531 5.38533ZM31.151 11.2933L30.864 11.438C24.3237 14.7373 15.6484 14.7373 9.10802 11.438L8.83619 11.3003C-0.990647 22.0815 -8.49231 41.9965 20.0455 41.9965C48.5834 41.9965 40.8997 21.7117 31.151 11.2933ZM18.8334 21C18.2145 21 17.621 21.2458 17.1834 21.6834C16.7459 22.121 16.5 22.7145 16.5 23.3333C16.5 23.9522 16.7459 24.5457 17.1834 24.9832C17.621 25.4208 18.2145 25.6667 18.8334 25.6667V21ZM21.1667 18.6667V17.5H18.8334V18.6667C17.5957 18.6667 16.4087 19.1583 15.5335 20.0335C14.6584 20.9087 14.1667 22.0957 14.1667 23.3333C14.1667 24.571 14.6584 25.758 15.5335 26.6332C16.4087 27.5083 17.5957 28 18.8334 28V32.6667C17.8184 32.6667 16.9539 32.0192 16.6319 31.1115C16.5841 30.963 16.507 30.8256 16.4052 30.7074C16.3034 30.5892 16.1789 30.4926 16.0391 30.4234C15.8994 30.3541 15.7471 30.3136 15.5914 30.3042C15.4357 30.2949 15.2797 30.3168 15.1326 30.3688C14.9855 30.4207 14.8503 30.5017 14.7351 30.6068C14.6198 30.7119 14.5268 30.8391 14.4616 30.9808C14.3963 31.1225 14.3601 31.2758 14.3552 31.4317C14.3502 31.5876 14.3766 31.7429 14.4327 31.8885C14.7544 32.7986 15.3503 33.5865 16.1384 34.1437C16.9266 34.701 17.8681 35.0002 18.8334 35V36.1667H21.1667V35C22.4044 35 23.5914 34.5083 24.4665 33.6332C25.3417 32.758 25.8334 31.571 25.8334 30.3333C25.8334 29.0957 25.3417 27.9087 24.4665 27.0335C23.5914 26.1583 22.4044 25.6667 21.1667 25.6667V21C22.1817 21 23.0462 21.6475 23.3682 22.5552C23.416 22.7037 23.493 22.8411 23.5948 22.9593C23.6966 23.0775 23.8211 23.174 23.9609 23.2433C24.1007 23.3125 24.2529 23.353 24.4086 23.3624C24.5644 23.3718 24.7204 23.3499 24.8675 23.2979C25.0145 23.2459 25.1497 23.165 25.265 23.0599C25.3802 22.9548 25.4732 22.8276 25.5385 22.6859C25.6037 22.5442 25.6399 22.3909 25.6449 22.235C25.6498 22.079 25.6235 21.9237 25.5674 21.7782C25.2457 20.8681 24.6497 20.0802 23.8616 19.5229C23.0735 18.9657 22.1319 18.6665 21.1667 18.6667ZM21.1667 28V32.6667C21.7855 32.6667 22.379 32.4208 22.8166 31.9832C23.2542 31.5457 23.5 30.9522 23.5 30.3333C23.5 29.7145 23.2542 29.121 22.8166 28.6834C22.379 28.2458 21.7855 28 21.1667 28Z" fill="#406E61"/>
</svg>
