<svg width="340" height="522" viewBox="0 0 340 522" fill="none" xmlns="http://www.w3.org/2000/svg">
<g opacity="0.1" clip-path="url(#clip0_4006_3)">
<path d="M323.954 334.361L173.558 61.8704L129.159 142.329L235.134 334.361H235.156L74.2106 626H163.031L324 334.361H323.954Z" fill="#9B9B9B"/>
<path d="M97.4879 158.439L53.0661 238.897L105.744 334.361H105.698L-55.2707 626H33.5499L194.519 334.361H194.587L97.4879 158.439Z" fill="#1C1C1C"/>
<path d="M323.633 333.763H234.812L235.134 334.361H235.179L74.2106 626H163.031L324 334.361H323.954L323.633 333.763Z" fill="#9B9B9B"/>
<path d="M105.423 333.763L105.744 334.361H105.698L-55.2707 626H33.5499L194.519 334.361H194.587L194.266 333.763H105.423Z" fill="#16423C"/>
<path d="M-224.932 223.639L-74.5351 496.13L-30.1362 415.648L-136.111 223.639H-136.157L24.8119 -68H-64.0087L-224.977 223.639H-224.932Z" fill="#9B9B9B"/>
<path d="M1.55792 399.561L45.9568 319.103L-6.72099 223.639H-6.67513L154.294 -68H65.473L-95.4957 223.639H-95.5645L1.55792 399.561Z" fill="#1C1C1C"/>
<path d="M-95.4728 223.639H-6.72099L154.294 -68H65.473L-95.4957 223.639H-95.5645L-95.4728 223.754V223.639Z" fill="#16423C"/>
<path d="M-224.931 223.639H-136.179L24.8581 -68H-63.9625L-224.931 223.639H-225L-224.931 223.754V223.639Z" fill="#9B9B9B"/>
</g>
<rect width="340" height="522" fill="url(#paint0_linear_4006_3)"/>
<defs>
<linearGradient id="paint0_linear_4006_3" x1="260" y1="438" x2="38" y2="49.5" gradientUnits="userSpaceOnUse">
<stop stop-color="#F2FBFA"/>
<stop offset="1" stop-color="#F2FBFA" stop-opacity="0"/>
</linearGradient>
<clipPath id="clip0_4006_3">
<rect width="549" height="694" fill="white" transform="translate(-225 -68)"/>
</clipPath>
</defs>
</svg>
