<svg width="125" height="158" viewBox="0 0 125 158" fill="none" xmlns="http://www.w3.org/2000/svg">
<g opacity="0.16" clip-path="url(#clip0_5_135)">
<path d="M124.99 91.6038L90.7463 29.567L80.6372 47.8846L104.766 91.6038H104.772L68.1263 158H88.3496L125 91.6038H124.99Z" fill="#9B9B9B"/>
<path d="M73.4262 51.5524L63.3119 69.87L75.306 91.6038H75.2955L38.6451 158H58.8684L95.5188 91.6038H95.5345L73.4262 51.5524Z" fill="#1C1C1C"/>
<path d="M124.916 91.4677H104.693L104.766 91.6039H104.777L68.1263 158H88.3496L125 91.6039H124.99L124.916 91.4677Z" fill="#9B9B9B"/>
<path d="M75.2329 91.4677L75.306 91.6039H75.2955L38.6451 158H58.8684L95.5188 91.6039H95.5345L95.4614 91.4677H75.2329Z" fill="#16423C"/>
<path d="M0.0155702 66.3961L34.2589 128.433L44.3679 110.11L20.2388 66.3961H20.2284L56.8788 0H36.6556L0.00512695 66.3961H0.0155702Z" fill="#9B9B9B"/>
<path d="M51.5842 106.448L61.6932 88.13L49.6992 66.3962H49.7096L86.3601 0H66.1368L29.4864 66.3962H29.4707L51.5842 106.448Z" fill="#1C1C1C"/>
<path d="M29.4916 66.3962H49.6992L86.3601 0H66.1368L29.4864 66.3962H29.4707L29.4916 66.4224V66.3962Z" fill="#16423C"/>
<path d="M0.0156648 66.3962H20.2233L56.8894 0H36.6661L0.0156648 66.3962H0L0.0156648 66.4224V66.3962Z" fill="#9B9B9B"/>
</g>
<defs>
<clipPath id="clip0_5_135">
<rect width="125" height="158" fill="white"/>
</clipPath>
</defs>
</svg>
