<svg width="271" height="406" viewBox="0 0 271 406" fill="none" xmlns="http://www.w3.org/2000/svg">
<g clip-path="url(#clip0_5_145)">
<path d="M326.973 235.387L237.392 75.9761L210.947 123.045L274.069 235.387H274.082L178.218 406H231.122L327 235.387H326.973Z" fill="#EBEDEC"/>
<path d="M192.083 132.47L165.624 179.539L197 235.387H196.973L101.096 406H154L249.877 235.387H249.918L192.083 132.47Z" fill="#9B9B9B"/>
<path d="M326.781 235.037H273.877L274.069 235.387H274.096L178.218 406H231.122L327 235.387H326.973L326.781 235.037Z" fill="#EBEDEC"/>
<path d="M196.809 235.037L197 235.387H196.973L101.096 406H154L249.877 235.387H249.918L249.727 235.037H196.809Z" fill="#EBEDEC"/>
<path d="M0.0414796 170.613L89.6219 330.024L116.067 282.941L52.9456 170.613H52.9183L148.796 0H95.8917L0.0141602 170.613H0.0414796Z" fill="#EBEDEC"/>
<path d="M134.944 273.53L161.39 226.461L130.013 170.613H130.041L225.918 0H173.014L77.1364 170.613H77.0955L134.944 273.53Z" fill="#9B9B9B"/>
<path d="M77.1501 170.613H130.013L225.918 0H173.014L77.1364 170.613H77.0955L77.1501 170.68V170.613Z" fill="#EBEDEC"/>
<path d="M0.0409792 170.613H52.9041L148.823 0H95.9185L0.0409792 170.613H0L0.0409792 170.68V170.613Z" fill="#EBEDEC"/>
</g>
<defs>
<clipPath id="clip0_5_145">
<rect width="327" height="406" fill="white"/>
</clipPath>
</defs>
</svg>
